<mxfile host="Electron" agent="Mozilla/5.0 (Windows NT 10.0; Win64; x64) AppleWebKit/537.36 (KHTML, like Gecko) draw.io/27.0.2 Chrome/134.0.6998.205 Electron/35.3.0 Safari/537.36" version="27.0.2" pages="2">
  <diagram name="Main-page" id="1AYm0D81Bo1Tp7edM7NR">
    <mxGraphModel dx="1564" dy="825" grid="1" gridSize="10" guides="1" tooltips="1" connect="1" arrows="1" fold="1" page="1" pageScale="1" pageWidth="1169" pageHeight="827" background="none" math="0" shadow="0">
      <root>
        <mxCell id="0" />
        <mxCell id="1" parent="0" />
        <mxCell id="LGg8EPLf33aoDH45jFs9-1" value="" style="rounded=0;whiteSpace=wrap;html=1;strokeWidth=2;" parent="1" vertex="1">
          <mxGeometry x="185" y="174" width="800" height="480" as="geometry" />
        </mxCell>
        <mxCell id="LGg8EPLf33aoDH45jFs9-2" value="" style="endArrow=none;html=1;rounded=0;entryX=0.75;entryY=0;entryDx=0;entryDy=0;exitX=0.75;exitY=1;exitDx=0;exitDy=0;strokeWidth=2;" parent="1" source="LGg8EPLf33aoDH45jFs9-1" target="LGg8EPLf33aoDH45jFs9-1" edge="1">
          <mxGeometry width="50" height="50" relative="1" as="geometry">
            <mxPoint x="560" y="560" as="sourcePoint" />
            <mxPoint x="610" y="510" as="targetPoint" />
          </mxGeometry>
        </mxCell>
        <mxCell id="LGg8EPLf33aoDH45jFs9-3" value="&lt;div&gt;&lt;font style=&quot;font-size: 13px;&quot;&gt;&lt;b&gt;(INFO)&lt;/b&gt;&lt;/font&gt;&lt;/div&gt;&lt;font style=&quot;font-size: 13px;&quot;&gt;&lt;b&gt;Google Maps&lt;/b&gt;&lt;/font&gt;&lt;div&gt;&lt;b&gt;&lt;font style=&quot;font-size: 13px;&quot;&gt;Speed limit&lt;/font&gt;&lt;span style=&quot;font-size: 13px; background-color: transparent; color: light-dark(rgb(0, 0, 0), rgb(255, 255, 255));&quot;&gt;&amp;nbsp;&lt;/span&gt;&lt;/b&gt;&lt;/div&gt;" style="rounded=0;whiteSpace=wrap;html=1;" parent="1" vertex="1">
          <mxGeometry x="190" y="570" width="140" height="80" as="geometry" />
        </mxCell>
        <mxCell id="LGg8EPLf33aoDH45jFs9-4" value="&lt;div&gt;&lt;b&gt;&lt;span style=&quot;font-size: 13px;&quot;&gt;(INFO)&lt;/span&gt;&lt;span style=&quot;font-size: 13px;&quot;&gt;&lt;/span&gt;&lt;/b&gt;&lt;/div&gt;&lt;span style=&quot;font-size: 13px;&quot;&gt;&lt;b&gt;AI CAM Detection&lt;/b&gt;&lt;/span&gt;&lt;div&gt;&lt;span style=&quot;font-size: 13px;&quot;&gt;&lt;b&gt;Speed limit&lt;/b&gt;&lt;/span&gt;&lt;/div&gt;" style="rounded=0;whiteSpace=wrap;html=1;" parent="1" vertex="1">
          <mxGeometry x="340" y="570" width="140" height="80" as="geometry" />
        </mxCell>
        <mxCell id="LGg8EPLf33aoDH45jFs9-6" value="&lt;div&gt;&lt;b&gt;(BUTTON)&lt;/b&gt;&lt;/div&gt;&lt;b&gt;Menu&lt;/b&gt;" style="ellipse;whiteSpace=wrap;html=1;aspect=fixed;" parent="1" vertex="1">
          <mxGeometry x="798" y="450" width="174" height="174" as="geometry" />
        </mxCell>
        <mxCell id="LGg8EPLf33aoDH45jFs9-8" value="&lt;div&gt;&lt;b&gt;(BUTTON)&lt;/b&gt;&lt;/div&gt;&lt;b&gt;Wifi Connection&lt;/b&gt;" style="rounded=0;whiteSpace=wrap;html=1;" parent="1" vertex="1">
          <mxGeometry x="790" y="180" width="190" height="60" as="geometry" />
        </mxCell>
        <mxCell id="LGg8EPLf33aoDH45jFs9-9" value="&lt;font style=&quot;font-size: 20px;&quot;&gt;&lt;b style=&quot;&quot;&gt;Forward warning detection&lt;/b&gt;&lt;/font&gt;" style="rounded=0;whiteSpace=wrap;html=1;" parent="1" vertex="1">
          <mxGeometry x="190" y="180" width="590" height="380" as="geometry" />
        </mxCell>
        <mxCell id="LGg8EPLf33aoDH45jFs9-11" value="&lt;div&gt;&lt;b&gt;&lt;span style=&quot;font-size: 13px;&quot;&gt;(INFO)&lt;/span&gt;&lt;span style=&quot;font-size: 13px;&quot;&gt;&lt;/span&gt;&lt;/b&gt;&lt;/div&gt;&lt;span style=&quot;font-size: 13px;&quot;&gt;&lt;b&gt;Service connection&lt;/b&gt;&lt;/span&gt;" style="rounded=0;whiteSpace=wrap;html=1;" parent="1" vertex="1">
          <mxGeometry x="490" y="570" width="140" height="80" as="geometry" />
        </mxCell>
        <mxCell id="LGg8EPLf33aoDH45jFs9-12" value="&lt;div&gt;&lt;b&gt;(BUTTON)&lt;/b&gt;&lt;/div&gt;&lt;b&gt;Register to service&lt;/b&gt;" style="ellipse;whiteSpace=wrap;html=1;aspect=fixed;" parent="1" vertex="1">
          <mxGeometry x="798" y="260" width="174" height="174" as="geometry" />
        </mxCell>
        <mxCell id="LGg8EPLf33aoDH45jFs9-13" value="&lt;div&gt;&lt;b&gt;&lt;span style=&quot;font-size: 13px;&quot;&gt;(INFO)&lt;/span&gt;&lt;span style=&quot;font-size: 13px;&quot;&gt;&lt;/span&gt;&lt;/b&gt;&lt;/div&gt;&lt;span style=&quot;font-size: 13px;&quot;&gt;&lt;b&gt;Service connection&lt;/b&gt;&lt;/span&gt;&lt;div&gt;&lt;span style=&quot;font-size: 13px;&quot;&gt;&lt;b&gt;info&lt;/b&gt;&lt;/span&gt;&lt;/div&gt;" style="rounded=0;whiteSpace=wrap;html=1;" parent="1" vertex="1">
          <mxGeometry x="640" y="570" width="140" height="80" as="geometry" />
        </mxCell>
      </root>
    </mxGraphModel>
  </diagram>
  <diagram name="Button functions" id="ihaR13Ezob-S53NnvO3P">
    <mxGraphModel dx="1564" dy="825" grid="1" gridSize="10" guides="1" tooltips="1" connect="1" arrows="1" fold="1" page="1" pageScale="1" pageWidth="1169" pageHeight="827" background="none" math="0" shadow="0">
      <root>
        <mxCell id="DeVFDK8xO5AoXEpu1p6K-0" />
        <mxCell id="DeVFDK8xO5AoXEpu1p6K-1" parent="DeVFDK8xO5AoXEpu1p6K-0" />
        <mxCell id="DeVFDK8xO5AoXEpu1p6K-2" value="" style="rounded=0;whiteSpace=wrap;html=1;strokeWidth=2;" vertex="1" parent="DeVFDK8xO5AoXEpu1p6K-1">
          <mxGeometry x="185" y="174" width="800" height="480" as="geometry" />
        </mxCell>
        <mxCell id="DeVFDK8xO5AoXEpu1p6K-3" value="" style="endArrow=none;html=1;rounded=0;entryX=0.75;entryY=0;entryDx=0;entryDy=0;exitX=0.75;exitY=1;exitDx=0;exitDy=0;strokeWidth=2;" edge="1" parent="DeVFDK8xO5AoXEpu1p6K-1" source="DeVFDK8xO5AoXEpu1p6K-2" target="DeVFDK8xO5AoXEpu1p6K-2">
          <mxGeometry width="50" height="50" relative="1" as="geometry">
            <mxPoint x="560" y="560" as="sourcePoint" />
            <mxPoint x="610" y="510" as="targetPoint" />
          </mxGeometry>
        </mxCell>
        <mxCell id="DeVFDK8xO5AoXEpu1p6K-4" value="&lt;div&gt;&lt;font style=&quot;font-size: 13px;&quot;&gt;&lt;b&gt;(INFO)&lt;/b&gt;&lt;/font&gt;&lt;/div&gt;&lt;font style=&quot;font-size: 13px;&quot;&gt;&lt;b&gt;Google Maps&lt;/b&gt;&lt;/font&gt;&lt;div&gt;&lt;b&gt;&lt;font style=&quot;font-size: 13px;&quot;&gt;Speed limit&lt;/font&gt;&lt;span style=&quot;font-size: 13px; background-color: transparent; color: light-dark(rgb(0, 0, 0), rgb(255, 255, 255));&quot;&gt;&amp;nbsp;&lt;/span&gt;&lt;/b&gt;&lt;/div&gt;" style="rounded=0;whiteSpace=wrap;html=1;" vertex="1" parent="DeVFDK8xO5AoXEpu1p6K-1">
          <mxGeometry x="190" y="570" width="140" height="80" as="geometry" />
        </mxCell>
        <mxCell id="DeVFDK8xO5AoXEpu1p6K-5" value="&lt;div&gt;&lt;b&gt;&lt;span style=&quot;font-size: 13px;&quot;&gt;(INFO)&lt;/span&gt;&lt;span style=&quot;font-size: 13px;&quot;&gt;&lt;/span&gt;&lt;/b&gt;&lt;/div&gt;&lt;span style=&quot;font-size: 13px;&quot;&gt;&lt;b&gt;AI CAM Detection&lt;/b&gt;&lt;/span&gt;&lt;div&gt;&lt;span style=&quot;font-size: 13px;&quot;&gt;&lt;b&gt;Speed limit&lt;/b&gt;&lt;/span&gt;&lt;/div&gt;" style="rounded=0;whiteSpace=wrap;html=1;" vertex="1" parent="DeVFDK8xO5AoXEpu1p6K-1">
          <mxGeometry x="340" y="570" width="140" height="80" as="geometry" />
        </mxCell>
        <mxCell id="DeVFDK8xO5AoXEpu1p6K-6" value="&lt;div&gt;&lt;b&gt;(BUTTON)&lt;/b&gt;&lt;/div&gt;&lt;b&gt;Menu&lt;/b&gt;" style="ellipse;whiteSpace=wrap;html=1;aspect=fixed;" vertex="1" parent="DeVFDK8xO5AoXEpu1p6K-1">
          <mxGeometry x="798" y="450" width="174" height="174" as="geometry" />
        </mxCell>
        <mxCell id="DeVFDK8xO5AoXEpu1p6K-7" value="&lt;div&gt;&lt;b&gt;(BUTTON)&lt;/b&gt;&lt;/div&gt;&lt;b&gt;Wifi Connection&lt;/b&gt;" style="rounded=0;whiteSpace=wrap;html=1;" vertex="1" parent="DeVFDK8xO5AoXEpu1p6K-1">
          <mxGeometry x="790" y="180" width="190" height="60" as="geometry" />
        </mxCell>
        <mxCell id="DeVFDK8xO5AoXEpu1p6K-8" value="&lt;div&gt;&lt;span style=&quot;background-color: transparent; color: light-dark(rgb(0, 0, 0), rgb(255, 255, 255));&quot;&gt;&lt;font style=&quot;font-size: 20px;&quot;&gt;&lt;b&gt;Forward warning detection&lt;/b&gt;&lt;/font&gt;&lt;/span&gt;&lt;/div&gt;" style="rounded=0;whiteSpace=wrap;html=1;" vertex="1" parent="DeVFDK8xO5AoXEpu1p6K-1">
          <mxGeometry x="190" y="180" width="590" height="380" as="geometry" />
        </mxCell>
        <mxCell id="DeVFDK8xO5AoXEpu1p6K-9" value="&lt;div&gt;&lt;b&gt;&lt;span style=&quot;font-size: 13px;&quot;&gt;(INFO)&lt;/span&gt;&lt;span style=&quot;font-size: 13px;&quot;&gt;&lt;/span&gt;&lt;/b&gt;&lt;/div&gt;&lt;span style=&quot;font-size: 13px;&quot;&gt;&lt;b&gt;Service connection&lt;/b&gt;&lt;/span&gt;" style="rounded=0;whiteSpace=wrap;html=1;" vertex="1" parent="DeVFDK8xO5AoXEpu1p6K-1">
          <mxGeometry x="490" y="570" width="140" height="80" as="geometry" />
        </mxCell>
        <mxCell id="DeVFDK8xO5AoXEpu1p6K-10" value="&lt;div&gt;&lt;b&gt;(BUTTON)&lt;/b&gt;&lt;/div&gt;&lt;b&gt;Register to service&lt;/b&gt;" style="ellipse;whiteSpace=wrap;html=1;aspect=fixed;" vertex="1" parent="DeVFDK8xO5AoXEpu1p6K-1">
          <mxGeometry x="798" y="260" width="174" height="174" as="geometry" />
        </mxCell>
        <mxCell id="DeVFDK8xO5AoXEpu1p6K-11" value="&lt;div&gt;&lt;b&gt;&lt;span style=&quot;font-size: 13px;&quot;&gt;(INFO)&lt;/span&gt;&lt;span style=&quot;font-size: 13px;&quot;&gt;&lt;/span&gt;&lt;/b&gt;&lt;/div&gt;&lt;span style=&quot;font-size: 13px;&quot;&gt;&lt;b&gt;Service connection&lt;/b&gt;&lt;/span&gt;&lt;div&gt;&lt;span style=&quot;font-size: 13px;&quot;&gt;&lt;b&gt;info&lt;/b&gt;&lt;/span&gt;&lt;/div&gt;" style="rounded=0;whiteSpace=wrap;html=1;" vertex="1" parent="DeVFDK8xO5AoXEpu1p6K-1">
          <mxGeometry x="640" y="570" width="140" height="80" as="geometry" />
        </mxCell>
        <mxCell id="KrLpmgkztHkJiahfqIxK-0" value="" style="rounded=0;whiteSpace=wrap;html=1;strokeWidth=2;" vertex="1" parent="DeVFDK8xO5AoXEpu1p6K-1">
          <mxGeometry x="185" y="680" width="800" height="480" as="geometry" />
        </mxCell>
        <mxCell id="KrLpmgkztHkJiahfqIxK-1" value="" style="endArrow=none;html=1;rounded=0;entryX=0.75;entryY=0;entryDx=0;entryDy=0;exitX=0.75;exitY=1;exitDx=0;exitDy=0;strokeWidth=2;" edge="1" parent="DeVFDK8xO5AoXEpu1p6K-1" source="KrLpmgkztHkJiahfqIxK-0" target="KrLpmgkztHkJiahfqIxK-0">
          <mxGeometry width="50" height="50" relative="1" as="geometry">
            <mxPoint x="560" y="1066" as="sourcePoint" />
            <mxPoint x="610" y="1016" as="targetPoint" />
          </mxGeometry>
        </mxCell>
        <mxCell id="KrLpmgkztHkJiahfqIxK-2" value="&lt;font style=&quot;font-size: 13px;&quot;&gt;Google Maps&lt;/font&gt;&lt;div&gt;&lt;font style=&quot;font-size: 13px;&quot;&gt;Speed limit&amp;nbsp;&lt;/font&gt;&lt;/div&gt;" style="rounded=0;whiteSpace=wrap;html=1;" vertex="1" parent="DeVFDK8xO5AoXEpu1p6K-1">
          <mxGeometry x="190" y="1076" width="140" height="80" as="geometry" />
        </mxCell>
        <mxCell id="KrLpmgkztHkJiahfqIxK-3" value="&lt;span style=&quot;font-size: 13px;&quot;&gt;AI CAM Detection&lt;/span&gt;&lt;div&gt;&lt;span style=&quot;font-size: 13px;&quot;&gt;Speed limit&lt;/span&gt;&lt;/div&gt;" style="rounded=0;whiteSpace=wrap;html=1;" vertex="1" parent="DeVFDK8xO5AoXEpu1p6K-1">
          <mxGeometry x="340" y="1076" width="140" height="80" as="geometry" />
        </mxCell>
        <mxCell id="KrLpmgkztHkJiahfqIxK-4" value="Menu" style="ellipse;whiteSpace=wrap;html=1;aspect=fixed;" vertex="1" parent="DeVFDK8xO5AoXEpu1p6K-1">
          <mxGeometry x="798" y="956" width="174" height="174" as="geometry" />
        </mxCell>
        <mxCell id="KrLpmgkztHkJiahfqIxK-5" value="Wifi Connection" style="rounded=0;whiteSpace=wrap;html=1;" vertex="1" parent="DeVFDK8xO5AoXEpu1p6K-1">
          <mxGeometry x="790" y="686" width="190" height="60" as="geometry" />
        </mxCell>
        <mxCell id="KrLpmgkztHkJiahfqIxK-6" value="&lt;font style=&quot;font-size: 15px;&quot;&gt;Forward warning&lt;/font&gt;" style="rounded=0;whiteSpace=wrap;html=1;" vertex="1" parent="DeVFDK8xO5AoXEpu1p6K-1">
          <mxGeometry x="190" y="686" width="590" height="380" as="geometry" />
        </mxCell>
        <mxCell id="KrLpmgkztHkJiahfqIxK-7" value="&lt;span style=&quot;font-size: 13px;&quot;&gt;Service connection&lt;/span&gt;&lt;div&gt;&lt;span style=&quot;font-size: 13px;&quot;&gt;info&lt;/span&gt;&lt;/div&gt;" style="rounded=0;whiteSpace=wrap;html=1;" vertex="1" parent="DeVFDK8xO5AoXEpu1p6K-1">
          <mxGeometry x="490" y="1076" width="140" height="80" as="geometry" />
        </mxCell>
        <mxCell id="KrLpmgkztHkJiahfqIxK-8" value="Register to service" style="ellipse;whiteSpace=wrap;html=1;aspect=fixed;" vertex="1" parent="DeVFDK8xO5AoXEpu1p6K-1">
          <mxGeometry x="798" y="766" width="174" height="174" as="geometry" />
        </mxCell>
        <mxCell id="KrLpmgkztHkJiahfqIxK-9" value="&lt;span style=&quot;font-size: 13px;&quot;&gt;Service connection&lt;/span&gt;&lt;div&gt;&lt;span style=&quot;font-size: 13px;&quot;&gt;info&lt;/span&gt;&lt;/div&gt;" style="rounded=0;whiteSpace=wrap;html=1;" vertex="1" parent="DeVFDK8xO5AoXEpu1p6K-1">
          <mxGeometry x="640" y="1076" width="140" height="80" as="geometry" />
        </mxCell>
        <mxCell id="KrLpmgkztHkJiahfqIxK-10" value="" style="rounded=0;whiteSpace=wrap;html=1;fillColor=#000000;fillStyle=solid;shadow=0;glass=0;fillOpacity=60;strokeOpacity=50;" vertex="1" parent="DeVFDK8xO5AoXEpu1p6K-1">
          <mxGeometry x="181" y="673" width="809" height="497" as="geometry" />
        </mxCell>
        <mxCell id="KrLpmgkztHkJiahfqIxK-14" value="" style="verticalLabelPosition=bottom;verticalAlign=top;html=1;shape=mxgraph.basic.corner_round_rect;dx=6;whiteSpace=wrap;strokeWidth=3;" vertex="1" parent="DeVFDK8xO5AoXEpu1p6K-1">
          <mxGeometry x="190" y="753" width="790" height="246" as="geometry" />
        </mxCell>
        <mxCell id="KrLpmgkztHkJiahfqIxK-17" value="LOGG LAST 20sec" style="ellipse;whiteSpace=wrap;html=1;aspect=fixed;" vertex="1" parent="DeVFDK8xO5AoXEpu1p6K-1">
          <mxGeometry x="740" y="769" width="214" height="214" as="geometry" />
        </mxCell>
        <mxCell id="KrLpmgkztHkJiahfqIxK-18" value="POLITIKONTROLLER APP&lt;div&gt;&lt;br&gt;&lt;/div&gt;&lt;div&gt;Kontroll&lt;/div&gt;" style="ellipse;whiteSpace=wrap;html=1;aspect=fixed;" vertex="1" parent="DeVFDK8xO5AoXEpu1p6K-1">
          <mxGeometry x="478.5" y="769" width="214" height="214" as="geometry" />
        </mxCell>
        <mxCell id="KrLpmgkztHkJiahfqIxK-19" value="GOOGLE MAPS&lt;div&gt;&lt;br&gt;&lt;/div&gt;&lt;div&gt;Road warning&amp;nbsp;&lt;/div&gt;" style="ellipse;whiteSpace=wrap;html=1;aspect=fixed;" vertex="1" parent="DeVFDK8xO5AoXEpu1p6K-1">
          <mxGeometry x="220" y="769" width="214" height="214" as="geometry" />
        </mxCell>
        <mxCell id="KrLpmgkztHkJiahfqIxK-20" style="edgeStyle=orthogonalEdgeStyle;rounded=0;orthogonalLoop=1;jettySize=auto;html=1;entryX=1;entryY=0.5;entryDx=0;entryDy=0;entryPerimeter=0;strokeWidth=5;" edge="1" parent="DeVFDK8xO5AoXEpu1p6K-1" source="DeVFDK8xO5AoXEpu1p6K-10" target="KrLpmgkztHkJiahfqIxK-14">
          <mxGeometry relative="1" as="geometry">
            <Array as="points">
              <mxPoint x="1080" y="347" />
              <mxPoint x="1080" y="876" />
            </Array>
          </mxGeometry>
        </mxCell>
        <mxCell id="KrLpmgkztHkJiahfqIxK-21" value="" style="rounded=0;whiteSpace=wrap;html=1;strokeWidth=2;" vertex="1" parent="DeVFDK8xO5AoXEpu1p6K-1">
          <mxGeometry x="184" y="1197" width="800" height="480" as="geometry" />
        </mxCell>
        <mxCell id="KrLpmgkztHkJiahfqIxK-22" value="" style="endArrow=none;html=1;rounded=0;entryX=0.75;entryY=0;entryDx=0;entryDy=0;exitX=0.75;exitY=1;exitDx=0;exitDy=0;strokeWidth=2;" edge="1" parent="DeVFDK8xO5AoXEpu1p6K-1" source="KrLpmgkztHkJiahfqIxK-21" target="KrLpmgkztHkJiahfqIxK-21">
          <mxGeometry width="50" height="50" relative="1" as="geometry">
            <mxPoint x="559" y="1583" as="sourcePoint" />
            <mxPoint x="609" y="1533" as="targetPoint" />
          </mxGeometry>
        </mxCell>
        <mxCell id="KrLpmgkztHkJiahfqIxK-23" value="&lt;font style=&quot;font-size: 13px;&quot;&gt;Google Maps&lt;/font&gt;&lt;div&gt;&lt;font style=&quot;font-size: 13px;&quot;&gt;Speed limit&amp;nbsp;&lt;/font&gt;&lt;/div&gt;" style="rounded=0;whiteSpace=wrap;html=1;" vertex="1" parent="DeVFDK8xO5AoXEpu1p6K-1">
          <mxGeometry x="189" y="1593" width="140" height="80" as="geometry" />
        </mxCell>
        <mxCell id="KrLpmgkztHkJiahfqIxK-24" value="&lt;span style=&quot;font-size: 13px;&quot;&gt;AI CAM Detection&lt;/span&gt;&lt;div&gt;&lt;span style=&quot;font-size: 13px;&quot;&gt;Speed limit&lt;/span&gt;&lt;/div&gt;" style="rounded=0;whiteSpace=wrap;html=1;" vertex="1" parent="DeVFDK8xO5AoXEpu1p6K-1">
          <mxGeometry x="339" y="1593" width="140" height="80" as="geometry" />
        </mxCell>
        <mxCell id="KrLpmgkztHkJiahfqIxK-25" value="Menu" style="ellipse;whiteSpace=wrap;html=1;aspect=fixed;" vertex="1" parent="DeVFDK8xO5AoXEpu1p6K-1">
          <mxGeometry x="797" y="1473" width="174" height="174" as="geometry" />
        </mxCell>
        <mxCell id="KrLpmgkztHkJiahfqIxK-26" value="Wifi Connection" style="rounded=0;whiteSpace=wrap;html=1;" vertex="1" parent="DeVFDK8xO5AoXEpu1p6K-1">
          <mxGeometry x="789" y="1203" width="190" height="60" as="geometry" />
        </mxCell>
        <mxCell id="KrLpmgkztHkJiahfqIxK-27" value="&lt;font style=&quot;font-size: 15px;&quot;&gt;Forward warning&lt;/font&gt;" style="rounded=0;whiteSpace=wrap;html=1;" vertex="1" parent="DeVFDK8xO5AoXEpu1p6K-1">
          <mxGeometry x="189" y="1203" width="590" height="380" as="geometry" />
        </mxCell>
        <mxCell id="KrLpmgkztHkJiahfqIxK-28" value="&lt;span style=&quot;font-size: 13px;&quot;&gt;Service connection&lt;/span&gt;&lt;div&gt;&lt;span style=&quot;font-size: 13px;&quot;&gt;info&lt;/span&gt;&lt;/div&gt;" style="rounded=0;whiteSpace=wrap;html=1;" vertex="1" parent="DeVFDK8xO5AoXEpu1p6K-1">
          <mxGeometry x="489" y="1593" width="140" height="80" as="geometry" />
        </mxCell>
        <mxCell id="KrLpmgkztHkJiahfqIxK-29" value="Register to service" style="ellipse;whiteSpace=wrap;html=1;aspect=fixed;" vertex="1" parent="DeVFDK8xO5AoXEpu1p6K-1">
          <mxGeometry x="797" y="1283" width="174" height="174" as="geometry" />
        </mxCell>
        <mxCell id="KrLpmgkztHkJiahfqIxK-30" value="&lt;span style=&quot;font-size: 13px;&quot;&gt;Service connection&lt;/span&gt;&lt;div&gt;&lt;span style=&quot;font-size: 13px;&quot;&gt;info&lt;/span&gt;&lt;/div&gt;" style="rounded=0;whiteSpace=wrap;html=1;" vertex="1" parent="DeVFDK8xO5AoXEpu1p6K-1">
          <mxGeometry x="639" y="1593" width="140" height="80" as="geometry" />
        </mxCell>
        <mxCell id="KrLpmgkztHkJiahfqIxK-31" value="" style="rounded=0;whiteSpace=wrap;html=1;fillColor=#000000;fillStyle=solid;shadow=0;glass=0;fillOpacity=60;strokeOpacity=50;" vertex="1" parent="DeVFDK8xO5AoXEpu1p6K-1">
          <mxGeometry x="180" y="1190" width="809" height="497" as="geometry" />
        </mxCell>
        <mxCell id="KrLpmgkztHkJiahfqIxK-32" value="" style="verticalLabelPosition=bottom;verticalAlign=top;html=1;shape=mxgraph.basic.corner_round_rect;dx=6;whiteSpace=wrap;strokeWidth=3;" vertex="1" parent="DeVFDK8xO5AoXEpu1p6K-1">
          <mxGeometry x="189" y="1270" width="790" height="246" as="geometry" />
        </mxCell>
        <mxCell id="KrLpmgkztHkJiahfqIxK-33" value="SETTING 3" style="ellipse;whiteSpace=wrap;html=1;aspect=fixed;" vertex="1" parent="DeVFDK8xO5AoXEpu1p6K-1">
          <mxGeometry x="739" y="1286" width="214" height="214" as="geometry" />
        </mxCell>
        <mxCell id="KrLpmgkztHkJiahfqIxK-34" value="SETTING 2" style="ellipse;whiteSpace=wrap;html=1;aspect=fixed;" vertex="1" parent="DeVFDK8xO5AoXEpu1p6K-1">
          <mxGeometry x="477.5" y="1286" width="214" height="214" as="geometry" />
        </mxCell>
        <mxCell id="KrLpmgkztHkJiahfqIxK-35" value="SETTING 1" style="ellipse;whiteSpace=wrap;html=1;aspect=fixed;" vertex="1" parent="DeVFDK8xO5AoXEpu1p6K-1">
          <mxGeometry x="219" y="1286" width="214" height="214" as="geometry" />
        </mxCell>
        <mxCell id="KrLpmgkztHkJiahfqIxK-36" style="edgeStyle=orthogonalEdgeStyle;rounded=0;orthogonalLoop=1;jettySize=auto;html=1;entryX=1;entryY=0.5;entryDx=0;entryDy=0;entryPerimeter=0;strokeWidth=5;" edge="1" parent="DeVFDK8xO5AoXEpu1p6K-1" source="DeVFDK8xO5AoXEpu1p6K-6" target="KrLpmgkztHkJiahfqIxK-32">
          <mxGeometry relative="1" as="geometry">
            <Array as="points">
              <mxPoint x="1120" y="537" />
              <mxPoint x="1120" y="1393" />
            </Array>
          </mxGeometry>
        </mxCell>
      </root>
    </mxGraphModel>
  </diagram>
</mxfile>
